<svg version="1.2" xmlns="http://www.w3.org/2000/svg" viewBox="0 0 1024 564" width="1024" height="564">
  <style>
    .s0 { fill: #FB923C }
    .s1 { fill: #ffffff }
  </style>
  <path id="Path 0" class="s0" d="m0 282v282h1024v-564h-1024z"/>
  <path class="s1" d="m286.42 341.86h-30.67v83.61h-33.64v-260.72h73.71q31.66 4.45 52.93 25.72 26.22 26.22 26.22 62.84 0 36.61-26.22 62.83-25.72 25.72-62.33 25.72zm0-143.47h-30.67v109.83h30.67q22.76 0 38.59-15.83 15.83-16.33 15.83-39.08 0-22.76-15.83-38.59-15.83-16.33-38.59-16.33zm225.09 227.08l-51.95-83.61h-30.67v83.61h-33.64v-260.72h73.71q31.66 4.45 52.93 25.72 26.22 26.22 26.22 62.84 0 36.61-26.22 62.83-17.8 17.81-27.2 20.28l57.87 89.05zm-51.94-227.08h-30.67v109.83h30.67q22.76 0 38.59-15.83 15.83-16.33 15.83-39.08 0-22.76-15.83-38.59-15.83-16.33-38.59-16.33zm242.4-37.11q55.4 0 94.48 39.09 38.59 39.08 38.59 94.49 0 54.92-38.59 94.5-39.08 39.08-94.48 39.08-54.91 0-93.99-39.08-39.08-39.58-39.08-94.5 0-55.41 39.08-94.49 39.08-39.09 93.99-39.09zm0 34.14q-41.06 0-69.75 29.19-29.19 28.7-29.19 70.25 0 41.07 29.19 70.26 29.18 29.19 69.75 29.19 41.55 0 70.24-29.19 29.19-29.19 29.19-70.26 0-41.55-29.19-70.25-28.69-29.19-70.24-29.19z"/>
</svg>
